<?xml version="1.0" encoding="iso-8859-1"?>
<!-- Generator: Adobe Illustrator 16.0.3, SVG Export Plug-In . SVG Version: 6.00 Build 0)  -->
<!DOCTYPE svg PUBLIC "-//W3C//DTD SVG 1.1//EN" "http://www.w3.org/Graphics/SVG/1.1/DTD/svg11.dtd">
<svg version="1.1" id="&#x5716;&#x5C64;_1" xmlns="http://www.w3.org/2000/svg" xmlns:xlink="http://www.w3.org/1999/xlink" x="0px"
	 y="0px" width="180px" height="26px" viewBox="0 0 180 26" style="enable-background:new 0 0 180 26;" xml:space="preserve">
<path style="fill:#686868;" d="M27.782,12.998V13h4.443v-0.002c0-6.961-5.639-12.6-12.598-12.6c-4.549,0-8.518,2.414-10.734,6.02
	v-6.02H4.446L0,4.846h4.445v20.752h4.447v-6.023C7.717,17.658,7.026,15.41,7.026,13c0-2.621,0.979-5.01,2.582-6.836
	c0.039-0.043,0.08-0.09,0.121-0.133c0.223-0.248,0.457-0.48,0.703-0.705c0.051-0.045,0.1-0.09,0.15-0.137
	c0.27-0.234,0.551-0.459,0.844-0.666c0.025-0.016,0.047-0.035,0.07-0.053c0.328-0.227,0.67-0.438,1.025-0.627
	c0.014-0.008,0.029-0.014,0.043-0.021c0.318-0.168,0.65-0.318,0.988-0.453c0.102-0.041,0.203-0.076,0.307-0.113
	c0.26-0.096,0.521-0.18,0.791-0.252c0.125-0.035,0.25-0.068,0.377-0.098c0.27-0.063,0.543-0.113,0.818-0.154
	c0.117-0.018,0.234-0.039,0.355-0.055c0.395-0.045,0.793-0.074,1.199-0.074c0.604,0,1.193,0.059,1.768,0.158
	c0.074,0.014,0.152,0.018,0.225,0.033c0.1,0.02,0.195,0.049,0.293,0.07c0.859,0.193,1.682,0.484,2.443,0.875
	c0.004,0.002,0.006,0.004,0.01,0.006c0.279,0.143,0.553,0.299,0.818,0.469C22.981,4.25,23,4.266,23.024,4.283
	c0.242,0.156,0.48,0.32,0.709,0.498c0.021,0.016,0.039,0.033,0.059,0.047c0.229,0.18,0.451,0.367,0.664,0.564
	c0.02,0.016,0.035,0.037,0.053,0.053c0.213,0.199,0.418,0.404,0.611,0.621c0.021,0.025,0.041,0.053,0.063,0.076
	c0.188,0.213,0.367,0.43,0.537,0.658c0.072,0.096,0.135,0.201,0.205,0.301c0.109,0.16,0.225,0.316,0.328,0.482
	c0.104,0.172,0.193,0.354,0.291,0.529c0.053,0.102,0.115,0.201,0.166,0.307c0.098,0.197,0.182,0.402,0.266,0.609
	c0.039,0.09,0.084,0.176,0.119,0.27c0.109,0.291,0.207,0.588,0.291,0.891c0.004,0.01,0.008,0.018,0.01,0.029
	c0.174,0.627,0.291,1.275,0.344,1.945C27.768,12.438,27.782,12.715,27.782,12.998"/>
<path style="fill:#686868;" d="M48.489,16.703V0.398h-0.74L27.735,20.41h16.313v5.191h4.441V20.41h5.188v-3.707H48.489z
	 M44.047,16.703h-7.416l7.416-7.406V16.703z"/>
<path style="fill:#FF7800;" d="M27.735,20.408l4.012-4.012c0.305-1.084,0.477-2.219,0.477-3.398h-4.441
	c0,4.5-3.648,8.152-8.154,8.152c-4.508,0-8.152-3.652-8.152-8.152c0-4.502,3.645-8.154,8.152-8.154c4.221,0,7.689,3.207,8.111,7.314
	c-0.428-5.334-4.885-9.535-10.338-9.535c-5.734,0-10.375,4.646-10.375,10.375c0,6.957,5.639,12.602,12.602,12.602
	c4.186,0,7.883-2.049,10.174-5.191H27.735z"/>
<path style="fill:#686868;" d="M69.387,17.772c-1.793,2.9-4.324,5.44-7.594,7.62L60,23.679c7.207-4.061,10.916-11.259,11.127-21.595
	V0.581h2.399v1.503c0,0.352-0.009,0.695-0.026,1.028h0.026c0.069,3.095,0.51,5.722,1.318,7.884c1.546,4.5,4.852,8.833,9.914,12.999
	l-2.004,1.45c-1.301-1.195-2.399-2.25-3.296-3.164c-3.463-3.533-5.836-7.436-7.119-11.707
	C71.637,13.193,70.653,15.593,69.387,17.772z"/>
<path style="fill:#686868;" d="M92.406,6.408v-2.32h8.676V0.555h2.504v3.533h10.838c0.193,0,0.352,0.035,0.475,0.105
	c0.281,0.176,0.422,0.58,0.422,1.213c-0.018,3.814-0.063,7.182-0.133,10.099c-0.158,4.939-1.055,7.945-2.689,9.018
	c-1.494,1.002-4.297,0.914-8.41-0.264l-0.105-2.795c3.709,1.195,6.09,1.424,7.145,0.686c0.439-0.316,0.826-0.958,1.16-1.925
	c0.316-1.037,0.502-2.725,0.555-5.063c0.105-5.484,0.096-8.341-0.027-8.569c-0.07-0.122-0.166-0.185-0.289-0.185h-9.045
	c-0.211,2.918-0.896,5.941-2.057,9.07c-1.758,3.955-4.43,7.172-8.016,9.65l-1.871-1.767c5.871-3.48,9.018-9.132,9.439-16.954H92.406
	z"/>
<path style="fill:#686868;" d="M124.893,6.725l-1.924-1.424c2.83-1.529,4.693-3.067,5.59-4.614l2.082,0.132
	c-0.053,0.141-0.113,0.273-0.184,0.396c1.23,0.914,2.486,1.767,3.77,2.558l-1.555,1.714c-1.143-0.844-2.215-1.723-3.217-2.637
	C128.471,4.062,126.949,5.354,124.893,6.725z M127.451,14.002h-3.691v-2.083h3.691V9.15h-2.953V7.067h8.357V9.15h-3.217v2.769h3.955
	v2.083h-3.955v7.646c1.881-0.422,3.121-0.712,3.719-0.87l0.369,2.136c-4.764,1.055-8.174,1.688-10.23,1.898l-0.211-2.162
	c1.283-0.158,2.672-0.352,4.166-0.58V14.002z M125.631,15.399c0.457,2.514,0.713,4.359,0.766,5.537l-2.084,0.079
	c-0.07-1.688-0.316-3.48-0.738-5.379L125.631,15.399z M133.357,15.637c-0.281,1.67-0.59,3.111-0.924,4.324l-1.871-0.606
	c0.492-1.617,0.791-3.015,0.896-4.192L133.357,15.637z M146.277,14.74l1.16,1.767c-1.16,0.896-2.594,1.802-4.299,2.716
	c1.125,1.758,2.77,3.375,4.932,4.852l-1.898,1.45c-2.004-1.582-3.111-2.584-3.322-3.006c-2.074-2.355-3.217-5.405-3.428-9.149
	h-2.295v9.123c1.512-0.387,2.805-0.8,3.877-1.239l0.633,2.109c-2.18,0.879-4.887,1.591-8.121,2.136l-0.502-2.162
	c0.65-0.123,1.293-0.237,1.926-0.343V1.688c0-0.422,0.211-0.633,0.633-0.633h10.283c0.439,0,0.658,0.211,0.658,0.633v10.995
	c-0.018,0.457-0.246,0.686-0.686,0.686h-4.219c0.105,1.547,0.326,2.848,0.66,3.902C143.975,16.34,145.311,15.496,146.277,14.74z
	 M144.326,6.224V3.64c-0.018-0.333-0.193-0.501-0.527-0.501h-6.145c-0.352,0.018-0.527,0.193-0.527,0.527v2.558H144.326z
	 M137.127,8.307v2.979h6.855c0.229,0,0.344-0.114,0.344-0.343V8.307H137.127z"/>
<path style="fill:#686868;" d="M156.377,16.56l-1.871-1.477c2.637-2.197,4.596-4.799,5.879-7.805l2.084,0.949
	c-0.703,1.424-1.381,2.646-2.031,3.665v13.5h-2.293V14.872C157.512,15.522,156.922,16.085,156.377,16.56z M161.52,1.293
	c-1.406,3.375-3.033,5.88-4.879,7.515l-1.951-1.345c2.127-1.916,3.691-4.245,4.693-6.987L161.52,1.293z M163.471,10.311V8.017
	h16.162v2.294h-4.219v12.129c-0.018,1.02-0.422,1.793-1.213,2.32c-1.459,0.949-4.113,0.861-7.963-0.264l0.053-2.399
	c1.371,0.404,2.717,0.721,4.035,0.949c1.178,0.141,2.029-0.009,2.557-0.448c0.158-0.141,0.238-0.396,0.238-0.765V10.311H163.471z
	 M178.578,1.688v2.294h-14.264V1.688H178.578z"/>
</svg>
